<svg xmlns="http://www.w3.org/2000/svg" viewBox="0 0 118.43 112.14"><defs><style>.cls-1{fill:#fff;}</style></defs><title>Fichier 2</title><g id="Calque_2" data-name="Calque 2"><g id="arts"><g id="formes"><path class="cls-1" d="M93,78.06,81.51,89.6V92h2.08l18.11,20.19,13.91-13.91L95.28,80.83V78.11S92.86,77.88,93,78.06Z"/><path class="cls-1" d="M81.8,67.39A31.64,31.64,0,0,1,66,60.48l-1,1L75.56,72a2.51,2.51,0,0,1,.78-.14A2.34,2.34,0,1,1,74,74.19a2.3,2.3,0,0,1,.22-1L63.65,62.66l-.79.79S69.92,73.26,69.92,79l9.71,5.88,8.19-8.2Z"/><path class="cls-1" d="M13.13,20.32,17,16.59s3,19.82,11.41,28.8l-3.58,3.44S14.85,36.23,13.13,20.32Z"/><path class="cls-1" d="M88.82,16l3.27-3.26s11.81,13.4,14,28.5l-3.74,4S101.28,31,88.82,16Z"/><path class="cls-1" d="M41.46,45.88,45,49.68s11.54-7.5,15.32-17.22C63.67,23.8,71,16,71,16l-3.28-3.27s-8.3,8.89-11.5,17C52.71,38.44,41.46,45.88,41.46,45.88Z"/><rect class="cls-1" x="103.23" y="45.98" width="12.59" height="12.59" transform="translate(69.04 -62.13) rotate(45)"/><rect class="cls-1" x="73.83" y="2.61" width="12.59" height="12.59" transform="translate(29.76 -54.05) rotate(45)"/><rect class="cls-1" x="2.61" y="3.78" width="12.59" height="12.59" transform="translate(9.73 -3.34) rotate(45)"/><polygon class="cls-1" points="64.53 54.67 61.25 51.39 58.7 53.95 43.44 53.95 35.14 45.65 26.84 53.95 12.69 53.95 10.18 51.43 6.9 54.71 10.18 57.99 12.83 55.34 27.02 55.34 35.14 63.45 43.25 55.34 58.64 55.34 61.25 57.95 64.53 54.67"/></g></g></g></svg>