<?xml version="1.0" encoding="utf-8"?>
<!-- Generator: Adobe Illustrator 22.0.1, SVG Export Plug-In . SVG Version: 6.00 Build 0)  -->
<svg version="1.1" id="Layer_1" xmlns="http://www.w3.org/2000/svg" xmlns:xlink="http://www.w3.org/1999/xlink" x="0px" y="0px"
   viewBox="0 0 512 512" style="enable-background:new 0 0 512 512;" xml:space="preserve">
<style type="text/css">
  .st0{fill:#FFFFFF;}
</style>
<path class="st0" d="M506.7,145.7c0,0-5.3-38-20.3-54.7c-19.4-22.1-41.5-22.1-51.2-23C363.7,62.7,256,61.8,256,61.8l0,0
  c0,0-107.7,0.9-179.2,6.2c-9.7,0.9-31.8,1.8-51.2,23C9.7,107.7,5.3,145.7,5.3,145.7s-5.3,45-5.3,90v41.5c0,45,5.3,89.2,5.3,89.2
  s5.3,38,20.3,54.7c19.4,22.1,45,21.2,56.5,23.8c40.6,4.4,173.9,5.3,173.9,5.3s107.7,0,179.2-6.2c9.7-0.9,31.8-1.8,51.2-23
  c15-16.8,20.3-54.7,20.3-54.7s5.3-45,5.3-89.2v-41.5C512,190.7,506.7,145.7,506.7,145.7"/>
<polygon points="194.2,166.8 194.2,358.4 361.9,264.8 "/>
</svg>
